<svg width="60" height="60" viewBox="0 0 60 60" fill="none" xmlns="http://www.w3.org/2000/svg">
<path d="M60 30C60 23.2781 57.7425 16.751 53.5896 11.4655C49.4367 6.17992 43.6291 2.44221 37.0981 0.851802C30.5671 -0.738607 23.6911 -0.0895637 17.5731 2.69484C11.455 5.47924 6.44934 10.2377 3.35884 16.2069C0.268334 22.1762 -0.727908 29.0105 0.529889 35.6136C1.78769 42.2167 5.22664 48.2062 10.2952 52.6213C15.3638 57.0364 21.7683 59.6213 28.4815 59.9615C35.1948 60.3018 41.8278 58.3776 47.3168 54.4975L43.9296 49.7057C39.5142 52.8268 34.1787 54.3747 28.7785 54.101C23.3784 53.8273 18.2267 51.748 14.1495 48.1965C10.0724 44.645 7.3061 39.8271 6.29433 34.5156C5.28257 29.204 6.08394 23.7066 8.56993 18.9049C11.0559 14.1032 15.0825 10.2756 20.0038 8.03581C24.9252 5.79605 30.4561 5.27396 35.7097 6.55328C40.9632 7.8326 45.6349 10.8392 48.9754 15.0909C52.316 19.3426 54.1319 24.593 54.1319 30H60Z" fill="#12B76A"/>
</svg>
