<svg width="18" height="18" viewBox="0 0 18 18" fill="none" xmlns="http://www.w3.org/2000/svg">
<path d="M13.4597 10.3078L10.394 8.96984C9.65328 8.64601 9.06187 8.0546 8.73804 7.31388L7.40009 4.24821C7.29538 4.00971 6.95992 4.00971 6.85521 4.24821L5.51726 7.31388C5.19343 8.0546 4.60202 8.64601 3.8613 8.96984L0.789816 10.3097C0.55325 10.4125 0.551311 10.7499 0.789816 10.8546L3.91365 12.2352C4.65243 12.5629 5.24191 13.1563 5.56186 13.8989L6.85715 16.9064C6.95992 17.1449 7.29926 17.1469 7.40203 16.9064L8.73804 13.8446C9.06187 13.1039 9.65328 12.5125 10.394 12.1887L13.4597 10.8507C13.6982 10.746 13.6982 10.4106 13.4597 10.3059V10.3078Z" fill="#98A2B3"/>
<path d="M17.2971 4.50267L15.5248 3.72898C15.0962 3.54283 14.755 3.19962 14.5688 2.77302L13.7951 1.00072C13.735 0.863043 13.5411 0.863043 13.481 1.00072L12.7073 2.77302C12.5211 3.20156 12.1779 3.54283 11.7513 3.72898L9.9771 4.50267C9.83942 4.56278 9.83942 4.75669 9.9771 4.8168L11.7824 5.61569C12.209 5.80378 12.5502 6.14893 12.7344 6.57747L13.4829 8.31487C13.543 8.45254 13.7389 8.45254 13.799 8.31487L14.5707 6.54644C14.7569 6.11791 15.1001 5.77663 15.5267 5.59048L17.299 4.8168C17.4367 4.75669 17.4367 4.56278 17.299 4.50267H17.2971Z" fill="#98A2B3"/>
</svg>
