<svg width="15" height="15" viewBox="0 0 15 15" fill="none" xmlns="http://www.w3.org/2000/svg">
<circle cx="8" cy="7.75" r="5" fill="white"/>
<path d="M14.6667 7.75L13.04 5.89L13.2667 3.43L10.86 2.88333L9.6 0.75L7.33333 1.72333L5.06667 0.75L3.80667 2.87667L1.4 3.41667L1.62667 5.88333L0 7.75L1.62667 9.61L1.4 12.0767L3.80667 12.6233L5.06667 14.75L7.33333 13.77L9.6 14.7433L10.86 12.6167L13.2667 12.07L13.04 9.61L14.6667 7.75ZM6.06 10.8967L3.52667 8.35667L4.51333 7.37L6.06 8.92333L9.96 5.01L10.9467 5.99667L6.06 10.8967Z" fill="#0C88EE"/>
</svg>
