<svg width="1382" height="342" viewBox="0 0 1382 342" fill="none" xmlns="http://www.w3.org/2000/svg">
<path fill-rule="evenodd" clip-rule="evenodd" d="M170.169 341.223C264.151 341.223 340.338 265.036 340.338 171.054C340.338 77.0724 264.151 0.885132 170.169 0.885132C76.1873 0.885132 0 77.0724 0 171.054C0 265.036 76.1873 341.223 170.169 341.223ZM245.527 81.7036C245.527 73.548 242.877 67.9411 237.576 64.8828L211.274 49.5911C205.973 46.5328 199.754 47.0425 192.618 51.1203L139.709 81.7036C135.019 84.3542 130.636 88.33 126.558 93.6311C122.48 98.7283 119.218 104.335 116.771 110.452C114.325 116.365 113.101 122.074 113.101 127.579V243.795L113.101 243.832V297.102C113.101 299.701 116.378 300.844 117.995 298.81L139.792 271.386L147.661 275.908C152.962 278.966 159.18 278.456 166.316 274.379L219.226 243.795C223.915 241.145 228.197 237.271 232.071 232.174C236.148 226.872 239.411 221.164 241.857 215.047C244.304 208.93 245.527 203.221 245.527 197.92V81.7036Z" fill="#0C88EE"/>
<path d="M1166.32 237.267V124.755H1192.87L1193.42 149.119H1193.97C1194.15 148.389 1194.79 146.838 1195.89 144.465C1197.16 141.91 1199.08 139.173 1201.63 136.253C1204.37 133.15 1207.84 130.504 1212.04 128.314C1216.23 125.942 1221.44 124.755 1227.64 124.755C1233.66 124.755 1238.68 125.942 1242.7 128.314C1246.71 130.687 1249.91 133.698 1252.28 137.348C1254.83 140.998 1256.66 144.922 1257.75 149.119H1258.3C1258.48 148.389 1259.3 146.747 1260.76 144.192C1262.22 141.637 1264.32 138.899 1267.06 135.979C1269.8 132.877 1273.36 130.23 1277.74 128.04C1282.3 125.85 1287.77 124.755 1294.16 124.755C1301.28 124.755 1307.12 126.307 1311.68 129.409C1316.43 132.329 1320.17 136.162 1322.91 140.907C1325.64 145.469 1327.65 150.397 1328.93 155.689C1330.39 160.982 1331.3 166.092 1331.67 171.019C1332.03 175.764 1332.21 179.688 1332.21 182.791V237.267H1305.11V182.517C1305.11 179.597 1304.93 176.312 1304.56 172.662C1304.38 168.829 1303.65 165.179 1302.37 161.712C1301.28 158.062 1299.36 155.142 1296.63 152.952C1293.89 150.579 1290.06 149.393 1285.13 149.393C1279.11 149.393 1274.45 151.127 1271.17 154.594C1268.06 157.879 1265.87 162.168 1264.6 167.461C1263.5 172.571 1262.95 177.954 1262.95 183.612V237.267H1235.58V182.517C1235.58 179.597 1235.49 176.312 1235.31 172.662C1235.12 168.829 1234.39 165.179 1233.12 161.712C1231.84 158.062 1229.83 155.142 1227.09 152.952C1224.36 150.579 1220.52 149.393 1215.6 149.393C1209.76 149.393 1205.19 151.127 1201.91 154.594C1198.62 157.879 1196.34 162.168 1195.06 167.461C1193.97 172.571 1193.42 177.954 1193.42 183.612V237.267H1166.32Z" fill="white"/>
<path d="M1100.98 240.004C1088.57 240.004 1078.08 237.541 1069.5 232.613C1061.1 227.686 1054.81 220.933 1050.61 212.356C1046.41 203.596 1044.31 193.649 1044.31 182.517C1044.31 171.202 1046.41 161.256 1050.61 152.678C1054.81 143.918 1061.1 137.074 1069.5 132.147C1078.08 127.219 1088.66 124.755 1101.26 124.755C1119.69 124.755 1133.65 130.048 1143.14 140.633C1152.81 151.218 1157.65 165.179 1157.65 182.517C1157.65 193.284 1155.64 203.048 1151.63 211.808C1147.61 220.568 1141.41 227.503 1133.01 232.613C1124.62 237.541 1113.94 240.004 1100.98 240.004ZM1100.98 216.462C1109.19 216.462 1115.4 214.728 1119.6 211.261C1123.98 207.793 1126.9 203.413 1128.36 198.121C1129.82 192.646 1130.55 187.171 1130.55 181.696C1130.55 175.856 1129.82 170.289 1128.36 164.997C1126.9 159.704 1123.98 155.324 1119.6 151.857C1115.4 148.207 1109.19 146.382 1100.98 146.382C1092.95 146.382 1086.75 148.207 1082.37 151.857C1078.17 155.324 1075.25 159.704 1073.61 164.997C1072.15 170.289 1071.42 175.856 1071.42 181.696C1071.42 187.171 1072.15 192.646 1073.61 198.121C1075.25 203.413 1078.17 207.793 1082.37 211.261C1086.75 214.728 1092.95 216.462 1100.98 216.462Z" fill="white"/>
<path d="M984.979 240.005C974.394 240.005 964.813 237.906 956.235 233.709C947.658 229.329 940.814 222.941 935.704 214.546C930.594 205.968 928.039 195.566 928.039 183.338C928.404 171.111 931.05 160.617 935.978 151.857C941.088 143.097 947.932 136.344 956.509 131.599C965.087 126.854 974.759 124.482 985.527 124.482C996.842 124.482 1006.42 126.672 1014.27 131.052C1022.12 135.249 1028.23 140.724 1032.61 147.477C1036.99 154.23 1039.46 161.347 1040 168.83H1014.27C1012.99 162.26 1009.98 157.241 1005.24 153.773C1000.49 150.306 994.196 148.572 986.348 148.572C979.778 148.572 974.212 149.941 969.649 152.678C965.087 155.416 961.528 159.248 958.973 164.176C956.6 168.921 955.414 174.578 955.414 181.148C955.414 191.733 957.969 200.22 963.079 206.607C968.372 212.812 976.128 215.915 986.348 215.915C993.283 215.915 999.306 214.09 1004.42 210.44C1009.71 206.79 1012.99 201.406 1014.27 194.288H1040C1039.46 202.136 1036.9 209.527 1032.34 216.462C1027.96 223.397 1021.75 229.055 1013.72 233.435C1005.88 237.815 996.294 240.005 984.979 240.005Z" fill="white"/>
<path d="M867.837 240.005C854.88 240.005 844.295 237.267 836.082 231.792C828.052 226.134 822.03 218.926 818.015 210.166C814.182 201.406 812.175 192.281 811.992 182.791C811.81 171.476 813.908 161.438 818.288 152.678C822.851 143.735 829.238 136.8 837.451 131.873C845.846 126.763 855.701 124.208 867.016 124.208C877.054 124.208 886.087 126.398 894.117 130.778C902.147 135.158 908.444 141.272 913.006 149.119C917.751 156.967 920.215 166.366 920.398 177.316C920.398 177.681 920.398 178.776 920.398 180.601C920.398 182.243 920.398 183.521 920.398 184.433H838.546C838.546 194.836 841.101 202.866 846.211 208.523C851.504 213.998 858.53 216.736 867.29 216.736C874.225 216.736 879.974 215.002 884.536 211.534C889.281 208.067 892.11 203.504 893.022 197.847H920.124C919.394 205.694 916.839 212.812 912.459 219.199C908.079 225.587 902.147 230.697 894.665 234.53C887.182 238.18 878.24 240.005 867.837 240.005ZM839.367 171.841H892.475C892.292 170.563 891.927 168.556 891.38 165.818C890.832 163.081 889.646 160.252 887.821 157.332C885.996 154.412 883.35 151.948 879.882 149.94C876.415 147.933 871.944 146.929 866.469 146.929C860.994 146.929 856.522 147.842 853.055 149.667C849.587 151.492 846.941 153.773 845.116 156.51C843.291 159.248 841.922 161.986 841.01 164.723C840.097 167.461 839.55 169.833 839.367 171.841Z" fill="white"/>
<path d="M781.379 237.267C772.437 237.267 765.684 235.077 761.122 230.697C756.742 226.317 754.552 219.2 754.552 209.345V141.454H780.558V215.367H806.838V237.267H781.379ZM734.346 144.466V124.756C738.361 124.756 744.879 124.482 747.434 123.934C749.989 123.387 751.997 122.201 753.457 120.376C755.099 118.551 756.285 115.722 757.015 111.889C757.745 108.057 758.11 102.764 758.11 96.0118H780.558V124.756H806.29V144.466H734.346Z" fill="white"/>
<path d="M669.928 240.005C659.708 240.005 651.405 237.632 645.017 232.887C638.63 227.96 633.976 221.207 631.056 212.63C628.318 203.87 626.949 193.832 626.949 182.517C626.949 171.02 628.409 160.891 631.329 152.131C634.249 143.371 638.812 136.618 645.017 131.873C651.405 126.946 659.708 124.482 669.928 124.482C676.498 124.482 681.973 125.394 686.353 127.219C690.916 129.044 694.566 131.234 697.303 133.789C700.223 136.344 702.413 138.899 703.873 141.454C705.333 143.827 706.337 145.743 706.885 147.203H707.432V124.756H736.176V237.267H712.086L707.432 218.926H706.885C706.52 220.203 705.516 222.029 703.873 224.401C702.231 226.591 699.95 228.964 697.03 231.519C694.292 233.891 690.642 235.899 686.08 237.541C681.7 239.184 676.316 240.005 669.928 240.005ZM681.426 216.462C688.178 216.462 693.471 215.002 697.303 212.082C701.136 209.162 703.782 205.147 705.242 200.037C706.702 194.745 707.432 188.996 707.432 182.791C707.432 176.038 706.611 170.198 704.968 165.271C703.508 160.161 700.862 156.237 697.03 153.5C693.38 150.58 688.178 149.12 681.426 149.12C674.308 149.12 668.742 150.671 664.727 153.773C660.895 156.876 658.157 160.982 656.515 166.092C655.055 171.02 654.325 176.586 654.325 182.791C654.325 188.996 655.055 194.653 656.515 199.763C658.157 204.873 660.895 208.98 664.727 212.082C668.742 215.002 674.308 216.462 681.426 216.462Z" fill="white"/>
<path d="M512.928 237.267V83.1455H541.672V149.119H542.219C542.402 148.572 543.04 147.112 544.135 144.739C545.23 142.184 547.147 139.356 549.884 136.253C552.622 133.151 556.272 130.504 560.834 128.314C565.579 125.942 571.511 124.756 578.628 124.756C586.476 124.756 592.954 126.124 598.064 128.862C603.174 131.599 607.189 135.158 610.109 139.538C613.212 143.918 615.402 148.754 616.679 154.047C618.139 159.157 619.052 164.267 619.417 169.377C619.782 174.305 619.964 178.776 619.964 182.791V237.267H592.863V182.517C592.863 176.495 592.224 171.02 590.947 166.092C589.852 161.165 587.571 157.15 584.103 154.047C580.636 150.944 575.343 149.393 568.226 149.393C561.108 149.393 555.633 151.127 551.8 154.594C547.968 157.88 545.322 162.077 543.862 167.187C542.402 172.297 541.672 177.772 541.672 183.612V237.267H512.928Z" fill="white"/>
<path d="M448.117 240.005C437.532 240.005 427.951 237.906 419.374 233.709C410.796 229.329 403.952 222.941 398.842 214.546C393.732 205.968 391.177 195.566 391.177 183.338C391.542 171.111 394.189 160.617 399.116 151.857C404.226 143.097 411.07 136.344 419.647 131.599C428.225 126.854 437.897 124.482 448.665 124.482C459.98 124.482 469.561 126.672 477.409 131.052C485.256 135.249 491.37 140.724 495.75 147.477C500.13 154.23 502.594 161.347 503.141 168.83H477.409C476.131 162.26 473.12 157.241 468.375 153.773C463.63 150.306 457.334 148.572 449.486 148.572C442.916 148.572 437.35 149.941 432.787 152.678C428.225 155.416 424.666 159.248 422.111 164.176C419.739 168.921 418.552 174.578 418.552 181.148C418.552 191.733 421.107 200.22 426.217 206.607C431.51 212.812 439.266 215.915 449.486 215.915C456.421 215.915 462.444 214.09 467.554 210.44C472.846 206.79 476.131 201.406 477.409 194.288H503.141C502.594 202.136 500.039 209.527 495.476 216.462C491.096 223.397 484.891 229.055 476.861 233.435C469.014 237.815 459.432 240.005 448.117 240.005Z" fill="white"/>
<path d="M1359.77 150.553V131.779H1366.06C1367.51 131.779 1368.7 132.03 1369.64 132.531C1370.57 133.026 1371.26 133.707 1371.71 134.575C1372.16 135.443 1372.38 136.43 1372.38 137.536C1372.38 138.642 1372.16 139.623 1371.71 140.478C1371.26 141.334 1370.57 142.006 1369.65 142.495C1368.72 142.978 1367.53 143.219 1366.09 143.219H1361V141.166H1366.02C1367.01 141.166 1367.81 141.019 1368.42 140.726C1369.03 140.433 1369.47 140.017 1369.75 139.479C1370.02 138.935 1370.16 138.288 1370.16 137.536C1370.16 136.784 1370.02 136.127 1369.75 135.565C1369.47 135.003 1369.02 134.569 1368.41 134.263C1367.8 133.952 1366.99 133.796 1365.98 133.796H1362.02V150.553H1359.77ZM1368.53 142.119L1373.11 150.553H1370.49L1365.98 142.119H1368.53Z" fill="white"/>
<path fill-rule="evenodd" clip-rule="evenodd" d="M1365.53 155.869C1373.33 155.869 1379.65 149.55 1379.65 141.754C1379.65 133.958 1373.33 127.639 1365.53 127.639C1357.74 127.639 1351.42 133.958 1351.42 141.754C1351.42 149.55 1357.74 155.869 1365.53 155.869ZM1365.53 158.222C1374.63 158.222 1382 150.849 1382 141.754C1382 132.659 1374.63 125.286 1365.53 125.286C1356.44 125.286 1349.06 132.659 1349.06 141.754C1349.06 150.849 1356.44 158.222 1365.53 158.222Z" fill="white"/>
</svg>
