<svg width="504" height="125" viewBox="0 0 504 125" fill="none" xmlns="http://www.w3.org/2000/svg">
<path fill-rule="evenodd" clip-rule="evenodd" d="M62.4771 124.738C96.7187 124.738 124.477 96.98 124.477 62.7383C124.477 28.4967 96.7187 0.738312 62.4771 0.738312C28.2354 0.738312 0.477051 28.4967 0.477051 62.7383C0.477051 96.98 28.2354 124.738 62.4771 124.738ZM89.9333 30.184C89.9333 27.2126 88.9676 25.1698 87.0362 24.0555L77.4534 18.4841C75.5219 17.3698 73.2562 17.5555 70.6562 19.0412L51.3791 30.184C49.6705 31.1498 48.0734 32.5983 46.5877 34.5298C45.102 36.3869 43.9134 38.4297 43.022 40.6583C42.1305 42.8126 41.6848 44.8926 41.6848 46.8983V51.1724V89.2411V108.663C41.6848 109.61 42.8785 110.027 43.4677 109.285L51.4094 99.2935L54.2762 100.941C56.2077 102.055 58.4734 101.87 61.0734 100.384L80.3505 89.2411C82.0591 88.2754 83.6191 86.864 85.0305 85.0068C86.5162 83.0754 87.7048 80.9954 88.5962 78.7668C89.4876 76.5383 89.9333 74.4583 89.9333 72.5268V30.184Z" fill="#0C88EE"/>
<path d="M425.418 86.8626V45.8697H435.093L435.293 54.7465H435.492C435.558 54.4806 435.791 53.9154 436.19 53.051C436.656 52.1201 437.354 51.1227 438.285 50.0588C439.282 48.9284 440.545 47.9642 442.075 47.1663C443.604 46.3019 445.499 45.8697 447.76 45.8697C449.954 45.8697 451.783 46.3019 453.246 47.1663C454.708 48.0307 455.872 49.1279 456.737 50.4577C457.667 51.7876 458.332 53.2172 458.731 54.7465H458.931C458.997 54.4806 459.296 53.8821 459.828 52.9512C460.36 52.0203 461.125 51.0229 462.122 49.959C463.12 48.8287 464.416 47.8645 466.012 47.0666C467.675 46.2687 469.669 45.8697 471.997 45.8697C474.59 45.8697 476.718 46.4349 478.38 47.5653C480.109 48.6292 481.472 50.0255 482.469 51.7543C483.467 53.4167 484.198 55.212 484.664 57.1403C485.195 59.0686 485.528 60.9304 485.661 62.7257C485.794 64.4545 485.86 65.8841 485.86 67.0145V86.8626H475.986V66.9147C475.986 65.8508 475.92 64.654 475.787 63.3241C475.72 61.9278 475.454 60.5979 474.989 59.3345C474.59 58.0047 473.892 56.9408 472.894 56.1429C471.897 55.2785 470.501 54.8463 468.705 54.8463C466.511 54.8463 464.815 55.478 463.619 56.7413C462.488 57.9382 461.69 59.5008 461.225 61.4291C460.826 63.2909 460.626 65.2524 460.626 67.3137V86.8626H450.652V66.9147C450.652 65.8508 450.619 64.654 450.553 63.3241C450.486 61.9278 450.22 60.5979 449.755 59.3345C449.289 58.0047 448.558 56.9408 447.56 56.1429C446.563 55.2785 445.167 54.8463 443.371 54.8463C441.244 54.8463 439.581 55.478 438.384 56.7413C437.188 57.9382 436.356 59.5008 435.891 61.4291C435.492 63.2909 435.293 65.2524 435.293 67.3137V86.8626H425.418Z" fill="#131313"/>
<path d="M401.613 87.86C397.091 87.86 393.268 86.9624 390.143 85.167C387.084 83.3717 384.79 80.9115 383.261 77.7863C381.731 74.5947 380.967 70.9708 380.967 66.9147C380.967 62.7922 381.731 59.1683 383.261 56.0431C384.79 52.8515 387.084 50.358 390.143 48.5627C393.268 46.7674 397.124 45.8697 401.712 45.8697C408.428 45.8697 413.515 47.798 416.972 51.6546C420.497 55.5112 422.259 60.5979 422.259 66.9147C422.259 70.8378 421.527 74.3952 420.064 77.5869C418.602 80.7785 416.341 83.3052 413.282 85.167C410.223 86.9624 406.334 87.86 401.613 87.86ZM401.613 79.2824C404.605 79.2824 406.866 78.6507 408.395 77.3874C409.991 76.124 411.055 74.5282 411.587 72.5999C412.119 70.6051 412.384 68.6103 412.384 66.6155C412.384 64.4877 412.119 62.4597 411.587 60.5314C411.055 58.6031 409.991 57.0073 408.395 55.7439C406.866 54.4141 404.605 53.7491 401.613 53.7491C398.687 53.7491 396.426 54.4141 394.83 55.7439C393.301 57.0073 392.237 58.6031 391.639 60.5314C391.107 62.4597 390.841 64.4877 390.841 66.6155C390.841 68.6103 391.107 70.6051 391.639 72.5999C392.237 74.5282 393.301 76.124 394.83 77.3874C396.426 78.6507 398.687 79.2824 401.613 79.2824Z" fill="#131313"/>
<path d="M359.348 87.86C355.491 87.86 352.001 87.0953 348.875 85.566C345.75 83.9702 343.257 81.6429 341.395 78.5843C339.533 75.4591 338.602 71.669 338.602 67.214C338.735 62.7589 339.699 58.9356 341.495 55.7439C343.356 52.5523 345.85 50.092 348.975 48.3632C352.1 46.6344 355.624 45.77 359.547 45.77C363.67 45.77 367.161 46.5679 370.02 48.1637C372.879 49.6931 375.107 51.6879 376.703 54.1481C378.298 56.6083 379.196 59.2016 379.396 61.9278H370.02C369.555 59.534 368.457 57.7055 366.729 56.4421C365 55.1787 362.706 54.5471 359.847 54.5471C357.453 54.5471 355.425 55.0458 353.763 56.0432C352.1 57.0405 350.804 58.4369 349.873 60.2322C349.008 61.961 348.576 64.0223 348.576 66.416C348.576 70.2726 349.507 73.3646 351.369 75.6918C353.297 77.9526 356.123 79.083 359.847 79.083C362.373 79.083 364.568 78.418 366.429 77.0882C368.358 75.7583 369.555 73.7968 370.02 71.2035H379.396C379.196 74.0627 378.265 76.7557 376.603 79.2824C375.007 81.8092 372.746 83.8704 369.821 85.4663C366.961 87.0621 363.471 87.86 359.348 87.86Z" fill="#131313"/>
<path d="M316.668 87.86C311.947 87.86 308.091 86.8626 305.098 84.8678C302.173 82.8066 299.978 80.1801 298.516 76.9884C297.119 73.7968 296.388 70.4721 296.321 67.0145C296.255 62.8919 297.019 59.2348 298.615 56.0432C300.278 52.785 302.605 50.2583 305.597 48.463C308.656 46.6012 312.246 45.6703 316.369 45.6703C320.026 45.6703 323.317 46.4682 326.243 48.064C329.169 49.6598 331.463 51.8873 333.125 54.7465C334.854 57.6057 335.752 61.0301 335.818 65.0197C335.818 65.1527 335.818 65.5516 335.818 66.2166C335.818 66.815 335.818 67.2805 335.818 67.6129H305.996C305.996 71.403 306.927 74.3287 308.789 76.39C310.717 78.3848 313.277 79.3822 316.469 79.3822C318.995 79.3822 321.09 78.7505 322.752 77.4871C324.481 76.2238 325.512 74.5614 325.844 72.5002H335.718C335.452 75.3594 334.521 77.9526 332.926 80.2798C331.33 82.6071 329.169 84.4689 326.443 85.8652C323.716 87.1951 320.458 87.86 316.668 87.86ZM306.295 63.0249H325.645C325.578 62.5595 325.445 61.828 325.246 60.8307C325.046 59.8333 324.614 58.8026 323.949 57.7387C323.284 56.6748 322.32 55.7772 321.057 55.0458C319.793 54.3143 318.164 53.9486 316.169 53.9486C314.175 53.9486 312.546 54.2811 311.282 54.946C310.019 55.611 309.055 56.4421 308.39 57.4395C307.725 58.4369 307.226 59.4343 306.894 60.4317C306.561 61.4291 306.362 62.2935 306.295 63.0249Z" fill="#131313"/>
<path d="M285.168 86.8627C281.909 86.8627 279.449 86.0647 277.787 84.4689C276.191 82.8731 275.393 80.2799 275.393 76.6892V51.9539H284.868V78.8835H294.443V86.8627H285.168ZM268.031 53.051V45.8698C269.494 45.8698 271.869 45.77 272.8 45.5705C273.731 45.3711 274.462 44.9389 274.994 44.2739C275.593 43.609 276.025 42.5784 276.291 41.182C276.557 39.7857 276.69 37.8574 276.69 35.3971H284.868V45.8698H294.244V53.051H268.031Z" fill="#131313"/>
<path d="M244.561 87.86C240.838 87.86 237.812 86.9956 235.485 85.2668C233.158 83.4715 231.462 81.0112 230.398 77.8861C229.401 74.6944 228.902 71.0373 228.902 66.9147C228.902 62.7257 229.434 59.0353 230.498 55.8437C231.562 52.652 233.224 50.1918 235.485 48.463C237.812 46.6676 240.838 45.77 244.561 45.77C246.955 45.77 248.95 46.1025 250.546 46.7674C252.208 47.4323 253.538 48.2302 254.535 49.1611C255.599 50.092 256.397 51.0229 256.929 51.9538C257.461 52.8182 257.827 53.5164 258.026 54.0484H258.225V45.8697H268.698V86.8626H259.921L258.225 80.1801H258.026C257.893 80.6455 257.527 81.3105 256.929 82.1749C256.33 82.9728 255.499 83.8372 254.435 84.7681C253.438 85.6325 252.108 86.3639 250.446 86.9624C248.85 87.5608 246.888 87.86 244.561 87.86ZM248.75 79.2824C251.21 79.2824 253.139 78.7505 254.535 77.6866C255.931 76.6227 256.896 75.1599 257.428 73.2981C257.96 71.3698 258.225 69.2752 258.225 67.0145C258.225 64.5542 257.926 62.4265 257.328 60.6312C256.796 58.7694 255.832 57.3398 254.435 56.3424C253.106 55.2785 251.21 54.7465 248.75 54.7465C246.157 54.7465 244.129 55.3117 242.666 56.4421C241.27 57.5725 240.272 59.0686 239.674 60.9304C239.142 62.7257 238.876 64.7537 238.876 67.0145C238.876 69.2752 239.142 71.3365 239.674 73.1983C240.272 75.0601 241.27 76.5562 242.666 77.6866C244.129 78.7505 246.157 79.2824 248.75 79.2824Z" fill="#131313"/>
<path d="M187.359 86.8627V30.7094H197.832V54.7466H198.031C198.098 54.5471 198.33 54.0152 198.729 53.1507C199.128 52.2198 199.827 51.1892 200.824 50.0588C201.821 48.9284 203.151 47.9643 204.814 47.1664C206.542 46.302 208.703 45.8698 211.297 45.8698C214.156 45.8698 216.516 46.3685 218.378 47.3659C220.24 48.3633 221.703 49.6599 222.767 51.2557C223.897 52.8515 224.695 54.6136 225.16 56.5419C225.692 58.4037 226.025 60.2655 226.158 62.1273C226.291 63.9226 226.357 65.5517 226.357 67.0145V86.8627H216.483V66.9148C216.483 64.7205 216.25 62.7257 215.785 60.9304C215.386 59.1351 214.555 57.6723 213.291 56.5419C212.028 55.4115 210.1 54.8463 207.506 54.8463C204.913 54.8463 202.918 55.478 201.522 56.7414C200.126 57.9382 199.162 59.4676 198.63 61.3294C198.098 63.1912 197.832 65.186 197.832 67.3137V86.8627H187.359Z" fill="#131313"/>
<path d="M163.746 87.86C159.889 87.86 156.398 87.0953 153.273 85.566C150.148 83.9702 147.655 81.6429 145.793 78.5843C143.931 75.4591 143 71.669 143 67.214C143.133 62.7589 144.097 58.9356 145.892 55.7439C147.754 52.5523 150.248 50.092 153.373 48.3632C156.498 46.6344 160.022 45.77 163.945 45.77C168.068 45.77 171.559 46.5679 174.418 48.1637C177.277 49.6931 179.505 51.6879 181.1 54.1481C182.696 56.6083 183.594 59.2016 183.793 61.9278H174.418C173.952 59.534 172.855 57.7055 171.127 56.4421C169.398 55.1787 167.104 54.5471 164.244 54.5471C161.851 54.5471 159.823 55.0458 158.16 56.0432C156.498 57.0405 155.201 58.4369 154.271 60.2322C153.406 61.961 152.974 64.0223 152.974 66.416C152.974 70.2726 153.905 73.3646 155.767 75.6918C157.695 77.9526 160.521 79.083 164.244 79.083C166.771 79.083 168.965 78.418 170.827 77.0882C172.756 75.7583 173.952 73.7968 174.418 71.2035H183.793C183.594 74.0627 182.663 76.7557 181.001 79.2824C179.405 81.8092 177.144 83.8704 174.218 85.4663C171.359 87.0621 167.868 87.86 163.746 87.86Z" fill="#131313"/>
<path d="M495.9 55.2687V48.4287H498.191C498.721 48.4287 499.155 48.52 499.495 48.7026C499.835 48.883 500.087 49.1312 500.25 49.4474C500.414 49.7636 500.495 50.1232 500.495 50.5262C500.495 50.9292 500.414 51.2865 500.25 51.5983C500.087 51.91 499.836 52.1549 499.499 52.333C499.161 52.5089 498.73 52.5969 498.204 52.5969H496.35V51.8487H498.178C498.54 51.8487 498.831 51.7953 499.052 51.6884C499.275 51.5816 499.436 51.4301 499.535 51.2342C499.637 51.036 499.687 50.8 499.687 50.5262C499.687 50.2523 499.637 50.0129 499.535 49.8081C499.434 49.6033 499.271 49.4452 499.048 49.3338C498.826 49.2203 498.531 49.1635 498.164 49.1635H496.721V55.2687H495.9ZM499.091 52.1961L500.76 55.2687H499.807L498.164 52.1961H499.091Z" fill="#131313"/>
<path fill-rule="evenodd" clip-rule="evenodd" d="M498 57.2059C500.84 57.2059 503.143 54.9033 503.143 52.063C503.143 49.2227 500.84 46.9202 498 46.9202C495.16 46.9202 492.857 49.2227 492.857 52.063C492.857 54.9033 495.16 57.2059 498 57.2059ZM498 58.063C501.314 58.063 504 55.3767 504 52.063C504 48.7493 501.314 46.063 498 46.063C494.686 46.063 492 48.7493 492 52.063C492 55.3767 494.686 58.063 498 58.063Z" fill="#131313"/>
</svg>
