<svg width="137" height="34" viewBox="0 0 137 34" fill="none" xmlns="http://www.w3.org/2000/svg">
<path fill-rule="evenodd" clip-rule="evenodd" d="M16.7973 33.7973C26.0742 33.7973 33.5946 26.2769 33.5946 17C33.5946 7.72305 26.0742 0.202637 16.7973 0.202637C7.52042 0.202637 0 7.72305 0 17C0 26.2769 7.52042 33.7973 16.7973 33.7973ZM24.236 8.18017C24.236 7.37514 23.9744 6.82168 23.4511 6.5198L20.8549 5.01036C20.3316 4.70847 19.7178 4.75879 19.0134 5.1613L13.7907 8.18017C13.3278 8.44181 12.8951 8.83426 12.4926 9.35753C12.0901 9.86068 11.7681 10.4141 11.5266 11.0179C11.2851 11.6016 11.1643 12.1651 11.1643 12.7085V13.8665H11.1643V29.4421C11.1643 29.6987 11.4877 29.8115 11.6473 29.6107L13.7989 26.9036L14.5756 27.35C15.0989 27.6519 15.7127 27.6016 16.4171 27.1991L21.6398 24.1802C22.1027 23.9186 22.5253 23.5362 22.9077 23.033C23.3102 22.5097 23.6322 21.9462 23.8738 21.3424C24.1153 20.7387 24.236 20.1752 24.236 19.6519V8.18017Z" fill="white"/>
<path d="M115.127 23.5357V12.4297H117.748L117.802 14.8346H117.856C117.874 14.7626 117.937 14.6095 118.045 14.3753C118.171 14.1231 118.361 13.8528 118.613 13.5646C118.883 13.2584 119.225 12.9971 119.64 12.781C120.054 12.5468 120.567 12.4297 121.18 12.4297C121.774 12.4297 122.27 12.5468 122.666 12.781C123.062 13.0152 123.378 13.3124 123.612 13.6727C123.864 14.033 124.044 14.4203 124.152 14.8346H124.206C124.224 14.7626 124.305 14.6004 124.449 14.3482C124.594 14.096 124.801 13.8258 125.071 13.5376C125.341 13.2313 125.692 12.9701 126.125 12.754C126.575 12.5378 127.116 12.4297 127.746 12.4297C128.449 12.4297 129.025 12.5828 129.476 12.8891C129.944 13.1773 130.313 13.5556 130.583 14.024C130.854 14.4743 131.052 14.9607 131.178 15.4832C131.322 16.0056 131.412 16.51 131.448 16.9964C131.484 17.4648 131.502 17.8521 131.502 18.1583V23.5357H128.827V18.1313C128.827 17.8431 128.809 17.5188 128.773 17.1585C128.755 16.7802 128.683 16.4199 128.557 16.0776C128.449 15.7173 128.26 15.4291 127.989 15.2129C127.719 14.9787 127.341 14.8617 126.854 14.8617C126.26 14.8617 125.801 15.0328 125.476 15.3751C125.17 15.6993 124.954 16.1227 124.828 16.6451C124.72 17.1495 124.666 17.6809 124.666 18.2394V23.5357H121.963V18.1313C121.963 17.8431 121.954 17.5188 121.936 17.1585C121.918 16.7802 121.846 16.4199 121.72 16.0776C121.594 15.7173 121.396 15.4291 121.126 15.2129C120.856 14.9787 120.477 14.8617 119.991 14.8617C119.414 14.8617 118.964 15.0328 118.64 15.3751C118.316 15.6993 118.09 16.1227 117.964 16.6451C117.856 17.1495 117.802 17.6809 117.802 18.2394V23.5357H115.127Z" fill="white"/>
<path d="M108.678 23.8059C107.453 23.8059 106.417 23.5627 105.57 23.0763C104.741 22.5899 104.12 21.9234 103.705 21.0767C103.291 20.212 103.084 19.2302 103.084 18.1313C103.084 17.0144 103.291 16.0326 103.705 15.1859C104.12 14.3212 104.741 13.6457 105.57 13.1593C106.417 12.6729 107.462 12.4297 108.705 12.4297C110.524 12.4297 111.902 12.9521 112.839 13.997C113.794 15.0418 114.271 16.4199 114.271 18.1313C114.271 19.1942 114.073 20.1579 113.677 21.0226C113.28 21.8873 112.668 22.5719 111.839 23.0763C111.01 23.5627 109.957 23.8059 108.678 23.8059ZM108.678 21.482C109.488 21.482 110.101 21.3109 110.515 20.9686C110.947 20.6263 111.236 20.194 111.38 19.6715C111.524 19.1311 111.596 18.5907 111.596 18.0502C111.596 17.4738 111.524 16.9243 111.38 16.4019C111.236 15.8795 110.947 15.4471 110.515 15.1049C110.101 14.7446 109.488 14.5644 108.678 14.5644C107.885 14.5644 107.272 14.7446 106.84 15.1049C106.426 15.4471 106.137 15.8795 105.975 16.4019C105.831 16.9243 105.759 17.4738 105.759 18.0502C105.759 18.5907 105.831 19.1311 105.975 19.6715C106.137 20.194 106.426 20.6263 106.84 20.9686C107.272 21.3109 107.885 21.482 108.678 21.482Z" fill="white"/>
<path d="M97.2265 23.8056C96.1817 23.8056 95.2359 23.5984 94.3892 23.1841C93.5425 22.7517 92.867 22.1212 92.3626 21.2925C91.8582 20.4458 91.606 19.419 91.606 18.212C91.642 17.0051 91.9032 15.9692 92.3896 15.1045C92.894 14.2398 93.5695 13.5733 94.4162 13.1049C95.2629 12.6365 96.2177 12.4023 97.2805 12.4023C98.3975 12.4023 99.3432 12.6185 100.118 13.0509C100.892 13.4652 101.496 14.0056 101.928 14.6722C102.361 15.3387 102.604 16.0413 102.658 16.7799H100.118C99.9917 16.1314 99.6945 15.636 99.2261 15.2937C98.7577 14.9514 98.1362 14.7803 97.3616 14.7803C96.7131 14.7803 96.1636 14.9154 95.7133 15.1856C95.2629 15.4558 94.9116 15.8341 94.6594 16.3205C94.4252 16.7889 94.3081 17.3473 94.3081 17.9959C94.3081 19.0407 94.5603 19.8784 95.0648 20.5089C95.5872 21.1214 96.3528 21.4276 97.3616 21.4276C98.0462 21.4276 98.6406 21.2475 99.1451 20.8872C99.6675 20.5269 99.9917 19.9955 100.118 19.2929H102.658C102.604 20.0675 102.352 20.7971 101.901 21.4817C101.469 22.1662 100.856 22.7247 100.064 23.157C99.2892 23.5894 98.3434 23.8056 97.2265 23.8056Z" fill="white"/>
<path d="M85.6634 23.8057C84.3844 23.8057 83.3396 23.5355 82.5289 22.9951C81.7363 22.4366 81.1418 21.7251 80.7455 20.8604C80.3672 19.9957 80.169 19.0949 80.151 18.1582C80.133 17.0413 80.3401 16.0505 80.7725 15.1858C81.2229 14.303 81.8534 13.6185 82.664 13.1321C83.4927 12.6277 84.4655 12.3755 85.5824 12.3755C86.5732 12.3755 87.4649 12.5917 88.2575 13.024C89.0502 13.4564 89.6717 14.0599 90.1221 14.8345C90.5904 15.6091 90.8336 16.5369 90.8516 17.6177C90.8516 17.6538 90.8516 17.7618 90.8516 17.942C90.8516 18.1041 90.8516 18.2302 90.8516 18.3203H82.7721C82.7721 19.3471 83.0243 20.1398 83.5287 20.6982C84.0511 21.2387 84.7447 21.5089 85.6094 21.5089C86.294 21.5089 86.8614 21.3377 87.3118 20.9955C87.7802 20.6532 88.0594 20.2028 88.1495 19.6444H90.8246C90.7526 20.419 90.5004 21.1216 90.068 21.7521C89.6357 22.3826 89.0502 22.887 88.3116 23.2653C87.573 23.6256 86.6903 23.8057 85.6634 23.8057ZM82.8532 17.0773H88.0954C88.0774 16.9512 88.0414 16.753 87.9873 16.4828C87.9333 16.2126 87.8162 15.9334 87.636 15.6451C87.4559 15.3569 87.1947 15.1137 86.8524 14.9155C86.5101 14.7174 86.0688 14.6183 85.5283 14.6183C84.9879 14.6183 84.5465 14.7084 84.2043 14.8885C83.862 15.0687 83.6008 15.2938 83.4206 15.5641C83.2405 15.8343 83.1054 16.1045 83.0153 16.3747C82.9252 16.6449 82.8712 16.8791 82.8532 17.0773Z" fill="white"/>
<path d="M77.1294 23.5356C76.2467 23.5356 75.5802 23.3194 75.1298 22.887C74.6975 22.4547 74.4813 21.7521 74.4813 20.7793V14.0779H77.0484V21.3738H79.6425V23.5356H77.1294ZM72.4868 14.3752V12.4296C72.8831 12.4296 73.5265 12.4026 73.7787 12.3485C74.0309 12.2945 74.2291 12.1774 74.3732 11.9972C74.5353 11.8171 74.6524 11.5379 74.7245 11.1596C74.7965 10.7812 74.8326 10.2588 74.8326 9.59229H77.0484V12.4296H79.5884V14.3752H72.4868Z" fill="white"/>
<path d="M66.1282 23.8056C65.1194 23.8056 64.2997 23.5714 63.6692 23.103C63.0387 22.6166 62.5793 21.9501 62.2911 21.1034C62.0209 20.2387 61.8857 19.2479 61.8857 18.131C61.8857 16.9961 62.0299 15.9963 62.3181 15.1316C62.6063 14.2669 63.0567 13.6003 63.6692 13.1319C64.2997 12.6455 65.1194 12.4023 66.1282 12.4023C66.7767 12.4023 67.3171 12.4924 67.7495 12.6726C68.1998 12.8527 68.5601 13.0689 68.8304 13.3211C69.1186 13.5733 69.3348 13.8255 69.4789 14.0777C69.623 14.3119 69.7221 14.501 69.7761 14.6452H69.8302V12.4294H72.6675V23.5353H70.2895L69.8302 21.7249H69.7761C69.7401 21.851 69.641 22.0311 69.4789 22.2653C69.3168 22.4815 69.0916 22.7157 68.8033 22.9679C68.5331 23.2021 68.1728 23.4002 67.7225 23.5624C67.2901 23.7245 66.7587 23.8056 66.1282 23.8056ZM67.2631 21.4817C67.9296 21.4817 68.4521 21.3376 68.8304 21.0493C69.2087 20.7611 69.4699 20.3648 69.614 19.8604C69.7581 19.338 69.8302 18.7705 69.8302 18.158C69.8302 17.4915 69.7491 16.915 69.587 16.4286C69.4429 15.9242 69.1816 15.5369 68.8033 15.2667C68.443 14.9784 67.9296 14.8343 67.2631 14.8343C66.5605 14.8343 66.0111 14.9874 65.6148 15.2937C65.2365 15.5999 64.9662 16.0053 64.8041 16.5097C64.66 16.9961 64.5879 17.5455 64.5879 18.158C64.5879 18.7705 64.66 19.3289 64.8041 19.8334C64.9662 20.3378 65.2365 20.7431 65.6148 21.0493C66.0111 21.3376 66.5605 21.4817 67.2631 21.4817Z" fill="white"/>
<path d="M50.6309 23.5356V8.32227H53.4682V14.8345H53.5222C53.5402 14.7805 53.6033 14.6364 53.7114 14.4022C53.8194 14.15 54.0086 13.8708 54.2788 13.5645C54.549 13.2583 54.9093 12.997 55.3597 12.7809C55.8281 12.5467 56.4135 12.4296 57.1161 12.4296C57.8907 12.4296 58.5302 12.5647 59.0347 12.8349C59.5391 13.1051 59.9354 13.4564 60.2236 13.8888C60.5299 14.3211 60.746 14.7985 60.8721 15.3209C61.0163 15.8253 61.1063 16.3297 61.1424 16.8341C61.1784 17.3205 61.1964 17.7619 61.1964 18.1582V23.5356H58.5212V18.1312C58.5212 17.5367 58.4582 16.9963 58.3321 16.5099C58.224 16.0235 57.9988 15.6272 57.6565 15.3209C57.3143 15.0147 56.7918 14.8616 56.0893 14.8616C55.3867 14.8616 54.8463 15.0327 54.468 15.375C54.0897 15.6992 53.8284 16.1136 53.6843 16.618C53.5402 17.1224 53.4682 17.6628 53.4682 18.2393V23.5356H50.6309Z" fill="white"/>
<path d="M44.2333 23.8056C43.1885 23.8056 42.2427 23.5984 41.396 23.1841C40.5494 22.7517 39.8738 22.1212 39.3694 21.2925C38.865 20.4458 38.6128 19.419 38.6128 18.212C38.6488 17.0051 38.91 15.9692 39.3964 15.1045C39.9008 14.2398 40.5764 13.5733 41.4231 13.1049C42.2698 12.6365 43.2245 12.4023 44.2874 12.4023C45.4043 12.4023 46.3501 12.6185 47.1247 13.0509C47.8993 13.4652 48.5028 14.0056 48.9351 14.6722C49.3675 15.3387 49.6107 16.0413 49.6647 16.7799H47.1247C46.9986 16.1314 46.7013 15.636 46.233 15.2937C45.7646 14.9514 45.1431 14.7803 44.3684 14.7803C43.7199 14.7803 43.1705 14.9154 42.7201 15.1856C42.2698 15.4558 41.9185 15.8341 41.6663 16.3205C41.4321 16.7889 41.315 17.3473 41.315 17.9959C41.315 19.0407 41.5672 19.8784 42.0716 20.5089C42.594 21.1214 43.3596 21.4276 44.3684 21.4276C45.053 21.4276 45.6475 21.2475 46.1519 20.8872C46.6743 20.5269 46.9986 19.9955 47.1247 19.2929H49.6647C49.6107 20.0675 49.3585 20.7971 48.9081 21.4817C48.4758 22.1662 47.8633 22.7247 47.0706 23.157C46.296 23.5894 45.3502 23.8056 44.2333 23.8056Z" fill="white"/>
<path d="M134.222 14.9762V13.123H134.843C134.986 13.123 135.104 13.1478 135.196 13.1972C135.288 13.2461 135.356 13.3134 135.401 13.399C135.445 13.4847 135.467 13.5821 135.467 13.6913C135.467 13.8005 135.445 13.8973 135.401 13.9817C135.356 14.0662 135.289 14.1326 135.197 14.1808C135.106 14.2285 134.989 14.2523 134.846 14.2523H134.344V14.0496H134.839C134.937 14.0496 135.016 14.0351 135.076 14.0062C135.136 13.9772 135.18 13.9362 135.207 13.8831C135.235 13.8294 135.248 13.7655 135.248 13.6913C135.248 13.6171 135.235 13.5522 135.207 13.4967C135.179 13.4413 135.136 13.3984 135.075 13.3683C135.015 13.3375 134.935 13.3221 134.836 13.3221H134.445V14.9762H134.222ZM135.087 14.1437L135.539 14.9762H135.281L134.836 14.1437H135.087Z" fill="white"/>
<path fill-rule="evenodd" clip-rule="evenodd" d="M134.791 15.5008C135.561 15.5008 136.184 14.877 136.184 14.1075C136.184 13.338 135.561 12.7142 134.791 12.7142C134.022 12.7142 133.398 13.338 133.398 14.1075C133.398 14.877 134.022 15.5008 134.791 15.5008ZM134.791 15.733C135.689 15.733 136.417 15.0052 136.417 14.1075C136.417 13.2097 135.689 12.4819 134.791 12.4819C133.893 12.4819 133.166 13.2097 133.166 14.1075C133.166 15.0052 133.893 15.733 134.791 15.733Z" fill="white"/>
</svg>
